<?xml version="1.0" encoding="utf-8"?>
<!-- Generator: Adobe Illustrator 16.0.0, SVG Export Plug-In . SVG Version: 6.00 Build 0)  -->
<!DOCTYPE svg PUBLIC "-//W3C//DTD SVG 1.1//EN" "http://www.w3.org/Graphics/SVG/1.1/DTD/svg11.dtd">
<svg version="1.1" id="Layer_1" xmlns="http://www.w3.org/2000/svg" xmlns:xlink="http://www.w3.org/1999/xlink" x="0px" y="0px"
	 width="698px" height="90px" viewBox="0 0 698 90" enable-background="new 0 0 698 90" xml:space="preserve">
<g id="f3be96d7-d7d5-07d1-655d-ce7c99f719e9" transform="matrix(5.725191089769513,0,0,5.725191089769513,106.16411487752919,-1.6030542294911996)">
	<path fill="#327EFF" d="M4.35,12.43c-1.47,0-2.64-1.2-2.64-2.76c0-1.54,1.17-2.77,2.64-2.77c0.77,0,1.47,0.31,1.95,0.79
		C6.41,7.8,6.5,7.77,6.59,7.64l0.34-0.35C7.04,7.17,7.04,7.1,6.93,7C6.22,6.29,5.31,5.95,4.34,5.95c-2.04,0-3.67,1.68-3.67,3.72
		c0,2.05,1.63,3.71,3.67,3.71c0.97,0,1.88-0.33,2.59-1.05c0.11-0.09,0.11-0.16,0-0.29l-0.34-0.35c-0.09-0.13-0.18-0.15-0.29-0.04
		C5.82,12.12,5.12,12.43,4.35,12.43z M8.25,9.67c0,2.05,1.63,3.71,3.68,3.71c2.04,0,3.68-1.66,3.68-3.71c0-2.04-1.64-3.72-3.68-3.72
		C9.88,5.95,8.25,7.63,8.25,9.67z M11.93,12.45c-1.46,0-2.63-1.24-2.63-2.78c0-1.54,1.17-2.77,2.63-2.77c1.47,0,2.64,1.23,2.64,2.77
		C14.57,11.21,13.4,12.45,11.93,12.45z M17.95,13.01c0,0.16,0.04,0.22,0.21,0.22h0.61c0.17,0,0.23-0.06,0.23-0.22V6.33
		c0-0.17-0.04-0.23-0.23-0.23h-0.61c-0.17,0-0.21,0.06-0.21,0.23V13.01z M17.72,3.77c0,0.4,0.33,0.72,0.73,0.72
		c0.41,0,0.74-0.32,0.74-0.72c0-0.41-0.33-0.73-0.74-0.73C18.05,3.04,17.72,3.36,17.72,3.77z M22.82,6.33
		c-0.07-0.17-0.13-0.23-0.24-0.23h-0.35c-0.15,0-0.21,0.06-0.21,0.23v3.2v3.48c0,0.16,0.06,0.22,0.21,0.22h0.63
		c0.16,0,0.21-0.06,0.21-0.22V9.48c0-1.4,0.79-2.58,2-2.58c1.14,0,1.98,0.81,1.98,2.48v3.63c0,0.16,0.05,0.22,0.21,0.22h0.63
		c0.15,0,0.21-0.06,0.21-0.22V9.1c0-2.24-1.28-3.15-2.77-3.15c-1.38,0-2.1,1.08-2.4,1.64L22.82,6.33z M29.78,9.67
		c0,2.05,1.64,3.71,3.68,3.71c2.04,0,3.68-1.66,3.68-3.71c0-2.04-1.64-3.72-3.68-3.72C31.42,5.95,29.78,7.63,29.78,9.67z
		 M33.46,12.45c-1.46,0-2.63-1.24-2.63-2.78c0-1.54,1.17-2.77,2.63-2.77c1.47,0,2.65,1.23,2.65,2.77
		C36.11,11.21,34.93,12.45,33.46,12.45z M43.22,13.05c0.12-0.07,0.14-0.13,0.1-0.27l-0.09-0.45c-0.05-0.19-0.1-0.21-0.28-0.11
		c-0.35,0.18-0.57,0.21-0.96,0.21c-1.12,0-1.61-0.6-1.61-2.24V6.97h2.53c0.17,0,0.21-0.05,0.21-0.22V6.33
		c0-0.18-0.06-0.23-0.21-0.23h-2.53V4.66c0-0.17-0.05-0.22-0.21-0.22h-0.62c-0.17,0-0.21,0.05-0.21,0.22V6.1h-0.69
		c-0.16,0-0.22,0.05-0.22,0.23v0.42c0,0.17,0.06,0.22,0.22,0.22h0.69v3.31c0,1.94,0.69,3.1,2.53,3.1
		C42.06,13.38,42.66,13.38,43.22,13.05z M48.27,12.43c-1.47,0-2.64-1.2-2.64-2.76c0-1.54,1.17-2.77,2.64-2.77
		c0.77,0,1.47,0.31,1.95,0.79c0.11,0.11,0.19,0.08,0.29-0.05l0.34-0.35c0.11-0.12,0.11-0.19,0-0.29c-0.72-0.71-1.63-1.05-2.59-1.05
		c-2.05,0-3.67,1.68-3.67,3.72c0,2.05,1.62,3.71,3.67,3.71c0.96,0,1.87-0.33,2.59-1.05c0.11-0.09,0.11-0.16,0-0.29l-0.34-0.35
		c-0.1-0.13-0.18-0.15-0.29-0.04C49.74,12.12,49.04,12.43,48.27,12.43z M52.54,12.57c0,0.46,0.35,0.81,0.81,0.81
		c0.45,0,0.82-0.35,0.82-0.81c0-0.46-0.37-0.82-0.82-0.82C52.89,11.75,52.54,12.11,52.54,12.57z M62.08,7.67
		c-0.26-0.67-1-1.72-2.37-1.72c-1.33,0-1.97,1.09-2.23,1.68l-0.11-1.3C57.3,6.16,57.25,6.1,57.13,6.1h-0.35
		c-0.15,0-0.21,0.06-0.21,0.23v6.68c0,0.16,0.06,0.22,0.21,0.22h0.63c0.16,0,0.21-0.06,0.21-0.22V9.48c0-1.49,0.7-2.58,1.84-2.58
		c1.15,0,1.83,1.01,1.83,2.48v3.63c0,0.16,0.07,0.22,0.21,0.22h0.63c0.17,0,0.21-0.06,0.21-0.22v-3.6c0-1.54,0.8-2.51,1.84-2.51
		c0.99,0,1.83,0.81,1.83,2.48v3.63c0,0.16,0.07,0.22,0.21,0.22h0.63c0.17,0,0.21-0.06,0.21-0.22V9.1c0-2.24-1.26-3.15-2.63-3.15
		C63.1,5.95,62.36,7.04,62.08,7.67z M69.82,7.1c0.53-0.1,1.26-0.23,2.15-0.23c1.47,0,1.99,0.65,1.99,2.41
		c-0.71-0.29-1.52-0.49-2.27-0.49c-1.72,0-2.87,0.74-2.87,2.27c0,1.5,1.15,2.32,2.5,2.32c1.51,0,2.43-0.81,2.81-1.33l0.06,0.96
		c0.04,0.16,0.09,0.22,0.21,0.22h0.4c0.16,0,0.21-0.06,0.21-0.22v-3.7c0-2.31-0.64-3.36-2.99-3.36c-1.08,0-2.24,0.21-2.41,0.25
		c-0.17,0.06-0.21,0.13-0.17,0.28l0.11,0.42C69.59,7.07,69.64,7.14,69.82,7.1z M71.9,9.58c0.8,0,1.35,0.21,2.06,0.5v1.16
		c-0.45,0.66-1.36,1.32-2.32,1.32c-1.14,0-1.77-0.63-1.77-1.5C69.87,10.11,70.57,9.58,71.9,9.58z M81.13,6.99
		c0.17,0,0.21-0.05,0.25-0.21l0.09-0.63c0.02-0.14,0-0.2-0.2-0.2c-1.99,0-2.63,1.19-2.91,1.78l-0.17-1.4
		c-0.07-0.17-0.13-0.23-0.24-0.23H77.6c-0.15,0-0.21,0.06-0.21,0.23v6.68c0,0.16,0.06,0.22,0.21,0.22h0.63
		c0.16,0,0.21-0.06,0.21-0.22V9.56C78.44,8.26,79.31,6.99,81.13,6.99z M85.27,9.45l3.5-3.12c0.12-0.11,0.07-0.23-0.07-0.23h-0.88
		c-0.15,0-0.22,0.06-0.36,0.23l-3.25,2.91V3.12c0-0.17-0.04-0.22-0.22-0.22h-0.61c-0.16,0-0.22,0.05-0.22,0.22v9.89
		c0,0.16,0.06,0.22,0.22,0.22h0.61c0.16,0,0.22-0.06,0.22-0.22V9.73l3.43,3.28c0.14,0.16,0.21,0.22,0.36,0.22h0.9
		c0.13,0,0.22-0.06,0.07-0.22L85.27,9.45z M96.36,11.77c-0.11-0.12-0.17-0.09-0.32-0.01c-0.67,0.49-1.51,0.7-2.2,0.7
		c-1.41,0-2.6-1.12-2.7-2.42h5.84c0.18,0,0.21-0.06,0.21-0.23c0-2.1-1.28-3.86-3.46-3.86c-2.04,0-3.67,1.68-3.67,3.72
		c0,2.05,1.63,3.71,3.74,3.71c1.04,0,2.17-0.33,2.83-0.98c0.1-0.09,0.1-0.18,0-0.3L96.36,11.77z M91.17,9.31
		c0.04-1.26,1.1-2.48,2.55-2.48c1.42,0,2.33,1.22,2.39,2.48H91.17z M103.19,13.05c0.13-0.07,0.14-0.13,0.1-0.27l-0.08-0.45
		c-0.06-0.19-0.1-0.21-0.28-0.11c-0.35,0.18-0.58,0.21-0.97,0.21c-1.12,0-1.61-0.6-1.61-2.24V6.97h2.54c0.16,0,0.21-0.05,0.21-0.22
		V6.33c0-0.18-0.06-0.23-0.21-0.23h-2.54V4.66c0-0.17-0.04-0.22-0.21-0.22h-0.61c-0.17,0-0.21,0.05-0.21,0.22V6.1h-0.69
		c-0.17,0-0.22,0.05-0.22,0.23v0.42c0,0.17,0.05,0.22,0.22,0.22h0.69v3.31c0,1.94,0.68,3.1,2.53,3.1
		C102.03,13.38,102.63,13.38,103.19,13.05z"/>
</g>
<g id="_x35_6e8c462-a05f-cc78-1a66-51d7a4111dec" transform="matrix(1,0,0,1,-5,-4)">
	<path fill="#327EFF" d="M47.8,13.1c7.6,14.8,21.8,25.2,38.1,28.1C86.6,44,87,47,87,50C87,70.4,70.4,87,50,87c-20.4,0-37-16.6-37-37
		C13,30.3,28.4,14.2,47.8,13.1 M50,5C25.1,5,5,25.1,5,50c0,24.9,20.1,45,45,45C74.9,95,95,74.9,95,50c0-5.7-1.101-11.2-3-16.2
		C74.2,32.6,59.2,21.1,53,5.1C52,5,51,5,50,5z"/>
	<path fill="#327EFF" d="M30,34c-2.5,0-4.5,2-4.5,4.5s2,4.5,4.5,4.5s4.5-2,4.5-4.5S32.5,34,30,34z M39,45c-2.5,0-4.5,2-4.5,4.5
		s2,4.5,4.5,4.5s4.5-2,4.5-4.5S41.5,45,39,45z M28.1,46.9c-1.399,0-2.6,1.2-2.6,2.6c0,1.4,1.2,2.6,2.6,2.6
		c1.4,0,2.601-1.199,2.601-2.6C30.7,48.1,29.5,46.9,28.1,46.9z"/>
</g>
</svg>
