<svg data-v-5f19e91b="" xmlns="http://www.w3.org/2000/svg" width="698" height="90" viewBox="0 0 698 90"><!----> <!----> <!----> <g data-v-5f19e91b="" id="f3be96d7-d7d5-07d1-655d-ce7c99f719e9" fill="white" transform="matrix(5.725191089769513,0,0,5.725191089769513,106.16411487752919,-1.6030542294911996)"><path d="M4.35 12.43C2.88 12.43 1.71 11.23 1.71 9.67C1.71 8.13 2.88 6.90 4.35 6.90C5.12 6.90 5.82 7.21 6.30 7.69C6.41 7.80 6.50 7.77 6.59 7.64L6.93 7.29C7.04 7.17 7.04 7.10 6.93 7C6.22 6.29 5.31 5.95 4.34 5.95C2.30 5.95 0.67 7.63 0.67 9.67C0.67 11.72 2.30 13.38 4.34 13.38C5.31 13.38 6.22 13.05 6.93 12.33C7.04 12.24 7.04 12.17 6.93 12.04L6.59 11.69C6.50 11.56 6.41 11.54 6.30 11.65C5.82 12.12 5.12 12.43 4.35 12.43ZM8.25 9.67C8.25 11.72 9.88 13.38 11.93 13.38C13.97 13.38 15.61 11.72 15.61 9.67C15.61 7.63 13.97 5.95 11.93 5.95C9.88 5.95 8.25 7.63 8.25 9.67ZM11.93 12.45C10.47 12.45 9.30 11.21 9.30 9.67C9.30 8.13 10.47 6.90 11.93 6.90C13.40 6.90 14.57 8.13 14.57 9.67C14.57 11.21 13.40 12.45 11.93 12.45ZM17.95 13.01C17.95 13.17 17.99 13.23 18.16 13.23L18.77 13.23C18.94 13.23 19.00 13.17 19.00 13.01L19.00 6.33C19.00 6.16 18.96 6.10 18.77 6.10L18.16 6.10C17.99 6.10 17.95 6.16 17.95 6.33ZM17.72 3.77C17.72 4.17 18.05 4.49 18.45 4.49C18.86 4.49 19.19 4.17 19.19 3.77C19.19 3.36 18.86 3.04 18.45 3.04C18.05 3.04 17.72 3.36 17.72 3.77ZM22.82 6.33C22.75 6.16 22.69 6.10 22.58 6.10L22.23 6.10C22.08 6.10 22.02 6.16 22.02 6.33L22.02 9.53L22.02 13.01C22.02 13.17 22.08 13.23 22.23 13.23L22.86 13.23C23.02 13.23 23.07 13.17 23.07 13.01L23.07 9.48C23.07 8.08 23.86 6.90 25.07 6.90C26.21 6.90 27.05 7.71 27.05 9.38L27.05 13.01C27.05 13.17 27.10 13.23 27.26 13.23L27.89 13.23C28.04 13.23 28.10 13.17 28.10 13.01L28.10 9.10C28.10 6.86 26.82 5.95 25.33 5.95C23.95 5.95 23.23 7.03 22.93 7.59ZM29.78 9.67C29.78 11.72 31.42 13.38 33.46 13.38C35.50 13.38 37.14 11.72 37.14 9.67C37.14 7.63 35.50 5.95 33.46 5.95C31.42 5.95 29.78 7.63 29.78 9.67ZM33.46 12.45C32.00 12.45 30.83 11.21 30.83 9.67C30.83 8.13 32.00 6.90 33.46 6.90C34.93 6.90 36.11 8.13 36.11 9.67C36.11 11.21 34.93 12.45 33.46 12.45ZM43.22 13.05C43.34 12.98 43.36 12.92 43.32 12.78L43.23 12.33C43.18 12.14 43.13 12.12 42.95 12.22C42.60 12.40 42.38 12.43 41.99 12.43C40.87 12.43 40.38 11.83 40.38 10.19L40.38 6.97L42.91 6.97C43.08 6.97 43.12 6.92 43.12 6.75L43.12 6.33C43.12 6.15 43.06 6.10 42.91 6.10L40.38 6.10L40.38 4.66C40.38 4.49 40.33 4.44 40.17 4.44L39.55 4.44C39.38 4.44 39.34 4.49 39.34 4.66L39.34 6.10L38.65 6.10C38.49 6.10 38.43 6.15 38.43 6.33L38.43 6.75C38.43 6.92 38.49 6.97 38.65 6.97L39.34 6.97L39.34 10.28C39.34 12.22 40.03 13.38 41.87 13.38C42.06 13.38 42.66 13.38 43.22 13.05ZM48.27 12.43C46.80 12.43 45.63 11.23 45.63 9.67C45.63 8.13 46.80 6.90 48.27 6.90C49.04 6.90 49.74 7.21 50.22 7.69C50.33 7.80 50.41 7.77 50.51 7.64L50.85 7.29C50.96 7.17 50.96 7.10 50.85 7C50.13 6.29 49.22 5.95 48.26 5.95C46.21 5.95 44.59 7.63 44.59 9.67C44.59 11.72 46.21 13.38 48.26 13.38C49.22 13.38 50.13 13.05 50.85 12.33C50.96 12.24 50.96 12.17 50.85 12.04L50.51 11.69C50.41 11.56 50.33 11.54 50.22 11.65C49.74 12.12 49.04 12.43 48.27 12.43ZM52.54 12.57C52.54 13.03 52.89 13.38 53.35 13.38C53.80 13.38 54.17 13.03 54.17 12.57C54.17 12.11 53.80 11.75 53.35 11.75C52.89 11.75 52.54 12.11 52.54 12.57ZM62.08 7.67C61.82 7 61.08 5.95 59.71 5.95C58.38 5.95 57.74 7.04 57.48 7.63L57.37 6.33C57.30 6.16 57.25 6.10 57.13 6.10L56.78 6.10C56.63 6.10 56.57 6.16 56.57 6.33L56.57 13.01C56.57 13.17 56.63 13.23 56.78 13.23L57.41 13.23C57.57 13.23 57.62 13.17 57.62 13.01L57.62 9.48C57.62 7.99 58.32 6.90 59.46 6.90C60.61 6.90 61.29 7.91 61.29 9.38L61.29 13.01C61.29 13.17 61.36 13.23 61.50 13.23L62.13 13.23C62.30 13.23 62.34 13.17 62.34 13.01L62.34 9.41C62.34 7.87 63.14 6.90 64.18 6.90C65.17 6.90 66.01 7.71 66.01 9.38L66.01 13.01C66.01 13.17 66.08 13.23 66.22 13.23L66.85 13.23C67.02 13.23 67.06 13.17 67.06 13.01L67.06 9.10C67.06 6.86 65.80 5.95 64.43 5.95C63.10 5.95 62.36 7.04 62.08 7.67ZM69.82 7.10C70.35 7 71.08 6.87 71.97 6.87C73.44 6.87 73.96 7.52 73.96 9.28C73.25 8.99 72.44 8.79 71.69 8.79C69.97 8.79 68.82 9.53 68.82 11.06C68.82 12.56 69.97 13.38 71.32 13.38C72.83 13.38 73.75 12.57 74.13 12.05L74.19 13.01C74.23 13.17 74.28 13.23 74.40 13.23L74.80 13.23C74.96 13.23 75.01 13.17 75.01 13.01L75.01 9.31C75.01 7 74.37 5.95 72.02 5.95C70.94 5.95 69.78 6.16 69.61 6.20C69.44 6.26 69.40 6.33 69.44 6.48L69.55 6.90C69.59 7.07 69.64 7.14 69.82 7.10ZM71.90 9.58C72.70 9.58 73.25 9.79 73.96 10.08L73.96 11.24C73.51 11.90 72.60 12.56 71.64 12.56C70.50 12.56 69.87 11.93 69.87 11.06C69.87 10.11 70.57 9.58 71.90 9.58ZM81.13 6.99C81.30 6.99 81.34 6.94 81.38 6.78L81.47 6.15C81.49 6.01 81.47 5.95 81.27 5.95C79.28 5.95 78.64 7.14 78.36 7.73L78.19 6.33C78.12 6.16 78.06 6.10 77.95 6.10L77.60 6.10C77.45 6.10 77.39 6.16 77.39 6.33L77.39 13.01C77.39 13.17 77.45 13.23 77.60 13.23L78.23 13.23C78.39 13.23 78.44 13.17 78.44 13.01L78.44 9.56C78.44 8.26 79.31 6.99 81.13 6.99ZM85.27 9.45L88.77 6.33C88.89 6.22 88.84 6.10 88.70 6.10L87.82 6.10C87.67 6.10 87.60 6.16 87.46 6.33L84.21 9.24L84.21 3.12C84.21 2.95 84.17 2.90 83.99 2.90L83.38 2.90C83.22 2.90 83.16 2.95 83.16 3.12L83.16 13.01C83.16 13.17 83.22 13.23 83.38 13.23L83.99 13.23C84.15 13.23 84.21 13.17 84.21 13.01L84.21 9.73L87.64 13.01C87.78 13.17 87.85 13.23 88.00 13.23L88.90 13.23C89.03 13.23 89.12 13.17 88.97 13.01ZM96.36 11.77C96.25 11.65 96.19 11.68 96.04 11.76C95.37 12.25 94.53 12.46 93.84 12.46C92.43 12.46 91.24 11.34 91.14 10.04L96.98 10.04C97.16 10.04 97.19 9.98 97.19 9.81C97.19 7.71 95.91 5.95 93.73 5.95C91.69 5.95 90.06 7.63 90.06 9.67C90.06 11.72 91.69 13.38 93.80 13.38C94.84 13.38 95.97 13.05 96.63 12.40C96.73 12.31 96.73 12.22 96.63 12.10ZM91.17 9.31C91.21 8.05 92.27 6.83 93.72 6.83C95.14 6.83 96.05 8.05 96.11 9.31ZM103.19 13.05C103.32 12.98 103.33 12.92 103.29 12.78L103.21 12.33C103.15 12.14 103.11 12.12 102.93 12.22C102.58 12.40 102.35 12.43 101.96 12.43C100.84 12.43 100.35 11.83 100.35 10.19L100.35 6.97L102.89 6.97C103.05 6.97 103.10 6.92 103.10 6.75L103.10 6.33C103.10 6.15 103.04 6.10 102.89 6.10L100.35 6.10L100.35 4.66C100.35 4.49 100.31 4.44 100.14 4.44L99.53 4.44C99.36 4.44 99.32 4.49 99.32 4.66L99.32 6.10L98.63 6.10C98.46 6.10 98.41 6.15 98.41 6.33L98.41 6.75C98.41 6.92 98.46 6.97 98.63 6.97L99.32 6.97L99.32 10.28C99.32 12.22 100.00 13.38 101.85 13.38C102.03 13.38 102.63 13.38 103.19 13.05Z"></path></g> <!----> <g data-v-5f19e91b="" id="56e8c462-a05f-cc78-1a66-51d7a4111dec" transform="matrix(1,0,0,1,-5,-4)" stroke="none" fill="white"><path d="M47.8 13.1c7.6 14.8 21.8 25.2 38.1 28.1C86.6 44 87 47 87 50c0 20.4-16.6 37-37 37S13 70.4 13 50c0-19.7 15.4-35.8 34.8-36.9M50 5C25.1 5 5 25.1 5 50s20.1 45 45 45 45-20.1 45-45c0-5.7-1.1-11.2-3-16.2-17.8-1.2-32.8-12.7-39-28.7-1-.1-2-.1-3-.1z"></path><path d="M30 34c-2.5 0-4.5 2-4.5 4.5s2 4.5 4.5 4.5 4.5-2 4.5-4.5-2-4.5-4.5-4.5zM39 45c-2.5 0-4.5 2-4.5 4.5s2 4.5 4.5 4.5 4.5-2 4.5-4.5-2-4.5-4.5-4.5zM28.1 46.9c-1.4 0-2.6 1.2-2.6 2.6s1.2 2.6 2.6 2.6 2.6-1.2 2.6-2.6-1.2-2.6-2.6-2.6z"></path></g></svg>