<?xml version="1.0" encoding="utf-8"?>
<!-- Generator: Adobe Illustrator 16.0.0, SVG Export Plug-In . SVG Version: 6.00 Build 0)  -->
<!DOCTYPE svg PUBLIC "-//W3C//DTD SVG 1.1//EN" "http://www.w3.org/Graphics/SVG/1.1/DTD/svg11.dtd">
<svg version="1.1" id="Layer_1" xmlns="http://www.w3.org/2000/svg" xmlns:xlink="http://www.w3.org/1999/xlink" x="0px" y="0px"
	 width="547px" height="540.641px" viewBox="-3.5 0 547 540.641" enable-background="new -3.5 0 547 540.641" xml:space="preserve">
<g id="b8527597-6d75-dab4-bfe3-ad60aa4142e5" transform="matrix(1,0,0,1,0,0.000003814697265625)">
	<path fill="#FFD009" d="M254.78,48.219c45.241,88.102,129.771,150.01,226.802,167.273c4.167,16.668,6.548,34.525,6.548,52.385
		c0,121.438-98.816,220.254-220.253,220.254c-121.438,0-220.254-98.816-220.254-220.254
		C47.622,150.606,139.295,54.766,254.78,48.219 M267.876,0C119.652,0,0,119.653,0,267.877s119.651,267.875,267.876,267.875
		s267.876-119.65,267.876-267.875c0-33.932-6.549-66.672-17.858-96.436C411.934,164.297,322.642,95.84,285.735,0.596
		C279.781,0,273.828,0,267.876,0L267.876,0z"/>
	<path fill="#FFD009" d="M148.82,172.631c-14.882,0-26.787,11.906-26.787,26.789c0,14.881,11.905,26.787,26.787,26.787
		c14.883,0,26.788-11.906,26.788-26.787C175.608,184.537,163.702,172.631,148.82,172.631z M202.395,238.114
		c-14.882,0-26.787,11.904-26.787,26.787c0,14.881,11.905,26.787,26.787,26.787c14.883,0,26.788-11.906,26.788-26.787
		C229.183,250.018,217.278,238.114,202.395,238.114z M137.51,249.422c-8.334,0-15.478,7.145-15.478,15.479
		s7.144,15.477,15.478,15.477s15.477-7.143,15.477-15.477S145.844,249.422,137.51,249.422z"/>
</g>
</svg>
